<svg data-v-fde0c5aa="" xmlns="http://www.w3.org/2000/svg" viewBox="0 0 300 300" class="iconLeft"><!----><defs data-v-fde0c5aa=""><!----></defs><rect data-v-fde0c5aa="" fill="transparent" x="0" y="0" width="300px" height="300px" class="logo-background-square"></rect><defs data-v-fde0c5aa=""><!----></defs><g data-v-fde0c5aa="" id="faf8ce5d-58c8-436f-a631-e980bb5e638b" fill="#000000" transform="matrix(2.0246292837824376,0,0,2.0246292837824376,87.17763682537537,132.22375494631532)"><path d="M2.65 13.75L1.20 13.75L1.20 3.95L2.65 3.95L2.65 7.99L5.99 7.99L5.99 3.95L7.42 3.95L7.42 13.75L5.99 13.75L5.99 9.35L2.65 9.35L2.65 13.75ZM16.13 9.84L16.13 9.84L16.13 9.84Q16.13 10.37 16.09 10.72L16.09 10.72L11.16 10.72L11.16 10.72Q11.31 11.62 11.81 12.14L11.81 12.14L11.81 12.14Q12.31 12.66 13.10 12.66L13.10 12.66L13.10 12.66Q14.04 12.66 14.73 12.01L14.73 12.01L15.55 12.91L15.55 12.91Q14.55 13.92 13.09 13.92L13.09 13.92L13.09 13.92Q11.54 13.92 10.64 12.87L10.64 12.87L10.64 12.87Q9.74 11.83 9.74 10.16L9.74 10.16L9.74 10.16Q9.74 8.41 10.65 7.42L10.65 7.42L10.65 7.42Q11.55 6.43 13.09 6.43L13.09 6.43L13.09 6.43Q14.42 6.43 15.27 7.29L15.27 7.29L15.27 7.29Q16.13 8.16 16.13 9.84ZM11.13 9.51L11.13 9.51L14.74 9.51L14.74 9.51Q14.70 8.55 14.22 8.11L14.22 8.11L14.22 8.11Q13.75 7.66 13.09 7.66L13.09 7.66L13.09 7.66Q12.22 7.66 11.73 8.14L11.73 8.14L11.73 8.14Q11.24 8.62 11.13 9.51ZM23.37 6.43L23.37 6.43L23.37 6.43Q24.36 6.43 24.99 6.79L24.99 6.79L24.99 9.35L23.62 9.35L23.62 7.77L23.62 7.77Q23.52 7.76 23.32 7.76L23.32 7.76L23.32 7.76Q22.25 7.76 21.57 8.29L21.57 8.29L21.57 8.29Q20.89 8.82 20.89 9.81L20.89 9.81L20.89 12.50L22.93 12.50L22.93 13.75L17.96 13.75L17.96 12.50L19.46 12.50L19.46 7.83L17.96 7.83L17.96 6.59L20.79 6.59L20.79 7.77L20.79 7.77Q21.13 7.15 21.85 6.79L21.85 6.79L21.85 6.79Q22.57 6.43 23.37 6.43ZM32.66 12.91L32.66 12.91L32.66 12.91Q31.74 13.92 30.18 13.92L30.18 13.92L30.18 13.92Q28.63 13.92 27.71 12.92L27.71 12.92L27.71 12.92Q26.80 11.91 26.80 10.18L26.80 10.18L26.80 10.18Q26.80 8.44 27.71 7.43L27.71 7.43L27.71 7.43Q28.63 6.43 30.18 6.43L30.18 6.43L30.18 6.43Q31.74 6.43 32.66 7.43L32.66 7.43L32.66 7.43Q33.57 8.44 33.57 10.16L33.57 10.16L33.57 10.16Q33.57 11.90 32.66 12.91ZM28.73 11.95L28.73 11.95L28.73 11.95Q29.25 12.60 30.18 12.60L30.18 12.60L30.18 12.60Q31.12 12.60 31.64 11.94L31.64 11.94L31.64 11.94Q32.16 11.28 32.16 10.16L32.16 10.16L32.16 10.16Q32.16 9.04 31.65 8.39L31.65 8.39L31.65 8.39Q31.14 7.74 30.18 7.74L30.18 7.74L30.18 7.74Q29.23 7.74 28.73 8.38L28.73 8.38L28.73 8.38Q28.22 9.02 28.22 10.18L28.22 10.18L28.22 10.18Q28.22 11.30 28.73 11.95ZM50.67 6.82L50.67 6.82L50.67 6.82Q50.67 7.77 50.15 8.53L50.15 8.53L50.15 8.53Q49.63 9.30 48.61 9.59L48.61 9.59L50.64 13.75L49.04 13.75L47.08 9.73L45.77 9.73L45.77 13.75L44.32 13.75L44.32 3.95L47.52 3.95L47.52 3.95Q49.18 3.95 49.92 4.76L49.92 4.76L49.92 4.76Q50.67 5.57 50.67 6.82ZM47.54 5.28L45.77 5.28L45.77 8.39L47.54 8.39L47.54 8.39Q48.43 8.39 48.83 7.95L48.83 7.95L48.83 7.95Q49.22 7.50 49.22 6.85L49.22 6.85L49.22 6.85Q49.22 6.22 48.84 5.75L48.84 5.75L48.84 5.75Q48.45 5.28 47.54 5.28L47.54 5.28ZM56.78 5.19L56.78 5.19L56.78 5.19Q56.53 5.43 56.17 5.43L56.17 5.43L56.17 5.43Q55.80 5.43 55.56 5.18L55.56 5.18L55.56 5.18Q55.31 4.93 55.31 4.58L55.31 4.58L55.31 4.58Q55.31 4.23 55.56 3.98L55.56 3.98L55.56 3.98Q55.80 3.72 56.17 3.72L56.17 3.72L56.17 3.72Q56.53 3.72 56.78 3.97L56.78 3.97L56.78 3.97Q57.02 4.21 57.02 4.58L57.02 4.58L57.02 4.58Q57.02 4.94 56.78 5.19ZM56.87 6.59L56.87 12.50L58.84 12.50L58.84 13.75L53.49 13.75L53.49 12.50L55.47 12.50L55.47 7.83L53.49 7.83L53.49 6.59L56.87 6.59ZM64.44 13.92L64.44 13.92L64.44 13.92Q63.00 13.92 62.17 12.92L62.17 12.92L62.17 12.92Q61.33 11.93 61.33 10.16L61.33 10.16L61.33 10.16Q61.33 8.43 62.18 7.43L62.18 7.43L62.18 7.43Q63.03 6.43 64.41 6.43L64.41 6.43L64.41 6.43Q65.59 6.43 66.26 7.10L66.26 7.10L66.26 4.30L67.66 3.64L67.66 13.75L66.26 13.75L66.26 13.17L66.26 13.17Q65.63 13.92 64.44 13.92ZM64.62 12.60L64.62 12.60L64.62 12.60Q65.76 12.60 66.26 11.75L66.26 11.75L66.26 8.55L66.26 8.55Q65.74 7.74 64.61 7.74L64.61 7.74L64.61 7.74Q63.71 7.74 63.23 8.37L63.23 8.37L63.23 8.37Q62.75 8.99 62.75 10.16L62.75 10.16L62.75 10.16Q62.75 11.24 63.25 11.92L63.25 11.92L63.25 11.92Q63.76 12.60 64.62 12.60ZM76.50 9.84L76.50 9.84L76.50 9.84Q76.50 10.37 76.45 10.72L76.45 10.72L71.53 10.72L71.53 10.72Q71.68 11.62 72.18 12.14L72.18 12.14L72.18 12.14Q72.67 12.66 73.47 12.66L73.47 12.66L73.47 12.66Q74.41 12.66 75.10 12.01L75.10 12.01L75.92 12.91L75.92 12.91Q74.91 13.92 73.46 13.92L73.46 13.92L73.46 13.92Q71.90 13.92 71.01 12.87L71.01 12.87L71.01 12.87Q70.11 11.83 70.11 10.16L70.11 10.16L70.11 10.16Q70.11 8.41 71.02 7.42L71.02 7.42L71.02 7.42Q71.92 6.43 73.46 6.43L73.46 6.43L73.46 6.43Q74.79 6.43 75.64 7.29L75.64 7.29L75.64 7.29Q76.50 8.16 76.50 9.84ZM71.50 9.51L71.50 9.51L75.11 9.51L75.11 9.51Q75.07 8.55 74.59 8.11L74.59 8.11L74.59 8.11Q74.12 7.66 73.46 7.66L73.46 7.66L73.46 7.66Q72.59 7.66 72.10 8.14L72.10 8.14L72.10 8.14Q71.61 8.62 71.50 9.51ZM83.73 6.43L83.73 6.43L83.73 6.43Q84.73 6.43 85.36 6.79L85.36 6.79L85.36 9.35L83.99 9.35L83.99 7.77L83.99 7.77Q83.89 7.76 83.69 7.76L83.69 7.76L83.69 7.76Q82.61 7.76 81.94 8.29L81.94 8.29L81.94 8.29Q81.26 8.82 81.26 9.81L81.26 9.81L81.26 12.50L83.30 12.50L83.30 13.75L78.33 13.75L78.33 12.50L79.83 12.50L79.83 7.83L78.33 7.83L78.33 6.59L81.16 6.59L81.16 7.77L81.16 7.77Q81.49 7.15 82.22 6.79L82.22 6.79L82.22 6.79Q82.94 6.43 83.73 6.43Z"></path></g><defs data-v-fde0c5aa=""><linearGradient data-v-fde0c5aa="" gradientTransform="rotate(25)" id="16085635-a977-4862-a314-20b812f9bf48" x1="0%" y1="0%" x2="100%" y2="0%"><stop data-v-fde0c5aa="" offset="0%" stop-color="#181B80" stop-opacity="1"></stop><stop data-v-fde0c5aa="" offset="100%" stop-color="#181ED9" stop-opacity="1"></stop></linearGradient></defs><g data-v-fde0c5aa="" id="41bfb5a4-efa8-4b07-a599-97c90097812e" stroke="none" fill="url(#16085635-a977-4862-a314-20b812f9bf48)" transform="matrix(0.8497490832525326,0,0,0.8497490832525326,39.15025091674747,134.39010862751317)"><defs><style>.cls-1,.cls-2{fill:none;stroke:#000;stroke-linecap:round;stroke-width:2px}.cls-1{stroke-miterlimit:10}.cls-2{stroke-linejoin:round}</style></defs><g data-name="图层 2"><g data-name="图层 1"><circle class="cls-1" cx="35.91" cy="28.57" r="8.17"></circle><circle class="cls-1" cx="9.17" cy="28.57" r="8.17"></circle><path class="cls-2" d="M21.82 32s3.65-8.21-6.88-15.9c0 0 2.59-7.4 7.9-7.8 0 0 1.12 7.83 12.33 4.86"></path><circle cx="27.02" cy="3.52" r="3.52"></circle><path class="cls-2" d="M34.56 16.93l.61 3.51"></path></g></g></g><!----></svg>